# xmcd CD database file
#
# Track frame offsets:
#	150
#	10430
#	24093
#	38496
#	53269
#	68123
#	80995
#	91208
#	104664
#	116790
#	130635
#	149959
#	163763
#	179669
#	191543
#
# Disc length: 2767 seconds
#
# Revision: 0
# Processed by: cddbd v1.5.1PL2 Copyright (c) Steve Scherf et al.
# Submitted via: CDex 1.51
#
DISCID=cf0acd0f
DTITLE=Glenn Miller Orchestra - meets the Giants of jazz, Swing and Entertainment
DYEAR=2005
DGENRE=Jazz
TTITLE0=boom shot
TTITLE1=story of a starry night
TTITLE2=shoo shoo baby
TTITLE3=you made me love you
TTITLE4=I get a kick out of you
TTITLE5=rainbow rapsody
TTITLE6=they can't take that away from me
TTITLE7=strangers in the night
TTITLE8=sentimental journey
TTITLE9=it's always you
TTITLE10=one o' clock
TTITLE11=that's amore
TTITLE12=all the cats join in
TTITLE13=love
TTITLE14=oh when the saints go marching in
EXTD=YEAR: 2005
EXTT0=
EXTT1=
EXTT2=
EXTT3=
EXTT4=
EXTT5=
EXTT6=
EXTT7=
EXTT8=
EXTT9=
EXTT10=
EXTT11=
EXTT12=
EXTT13=
EXTT14=
PLAYORDER=
